<?xml version="1.0" encoding="UTF-8" standalone="no"?>
<!DOCTYPE svg PUBLIC "-//W3C//DTD SVG 1.1//EN"
 "http://www.w3.org/Graphics/SVG/1.1/DTD/svg11.dtd">
<!-- Generated by graphviz version 2.38.0 (20140413.2041)
 -->
<!-- Title: G Pages: 1 -->
<svg width="787pt" height="750pt"
 viewBox="0.00 0.00 787.28 750.00" xmlns="http://www.w3.org/2000/svg" xmlns:xlink="http://www.w3.org/1999/xlink">
<g id="graph0" class="graph" transform="scale(1 1) rotate(0) translate(4 746)">
<title>G</title>
<polygon fill="white" stroke="none" points="-4,4 -4,-746 783.277,-746 783.277,4 -4,4"/>
<g id="clust1" class="cluster"><title>cluster_Global</title>
<path fill="none" stroke="gray" d="M20,-98C20,-98 759.277,-98 759.277,-98 765.277,-98 771.277,-104 771.277,-110 771.277,-110 771.277,-722 771.277,-722 771.277,-728 765.277,-734 759.277,-734 759.277,-734 20,-734 20,-734 14,-734 8,-728 8,-722 8,-722 8,-110 8,-110 8,-104 14,-98 20,-98"/>
<text text-anchor="middle" x="389.638" y="-721.2" font-family="Times New Roman,serif" font-size="11.00" fill="gray">Global</text>
</g>
<g id="clust2" class="cluster"><title>cluster_\WSC</title>
<path fill="none" stroke="gray" d="M28,-106C28,-106 751.277,-106 751.277,-106 757.277,-106 763.277,-112 763.277,-118 763.277,-118 763.277,-694 763.277,-694 763.277,-700 757.277,-706 751.277,-706 751.277,-706 28,-706 28,-706 22,-706 16,-700 16,-694 16,-694 16,-118 16,-118 16,-112 22,-106 28,-106"/>
<text text-anchor="middle" x="389.638" y="-693.2" font-family="Times New Roman,serif" font-size="11.00" fill="gray">WSC</text>
</g>
<g id="clust3" class="cluster"><title>cluster_\WSC\Framework</title>
<path fill="none" stroke="gray" d="M36,-356C36,-356 743.277,-356 743.277,-356 749.277,-356 755.277,-362 755.277,-368 755.277,-368 755.277,-666 755.277,-666 755.277,-672 749.277,-678 743.277,-678 743.277,-678 36,-678 36,-678 30,-678 24,-672 24,-666 24,-666 24,-368 24,-368 24,-362 30,-356 36,-356"/>
<text text-anchor="middle" x="389.638" y="-665.2" font-family="Times New Roman,serif" font-size="11.00" fill="gray">Framework</text>
</g>
<g id="clust4" class="cluster"><title>cluster_\WSC\Framework\Controls</title>
<path fill="none" stroke="gray" d="M632.277,-578C632.277,-578 735.277,-578 735.277,-578 741.277,-578 747.277,-584 747.277,-590 747.277,-590 747.277,-638 747.277,-638 747.277,-644 741.277,-650 735.277,-650 735.277,-650 632.277,-650 632.277,-650 626.277,-650 620.277,-644 620.277,-638 620.277,-638 620.277,-590 620.277,-590 620.277,-584 626.277,-578 632.277,-578"/>
<text text-anchor="middle" x="683.777" y="-637.2" font-family="Times New Roman,serif" font-size="11.00" fill="gray">Controls</text>
</g>
<g id="clust5" class="cluster"><title>cluster_\WSC\Framework\Handlers</title>
<path fill="none" stroke="gray" d="M173,-498C173,-498 706.777,-498 706.777,-498 712.777,-498 718.777,-504 718.777,-510 718.777,-510 718.777,-558 718.777,-558 718.777,-564 712.777,-570 706.777,-570 706.777,-570 173,-570 173,-570 167,-570 161,-564 161,-558 161,-558 161,-510 161,-510 161,-504 167,-498 173,-498"/>
<text text-anchor="middle" x="439.888" y="-557.2" font-family="Times New Roman,serif" font-size="11.00" fill="gray">Handlers</text>
</g>
<g id="clust6" class="cluster"><title>cluster_\WSC\Framework\Agents</title>
<path fill="none" stroke="gray" d="M44,-431C44,-431 93,-431 93,-431 99,-431 105,-437 105,-443 105,-443 105,-545 105,-545 105,-551 99,-557 93,-557 93,-557 44,-557 44,-557 38,-557 32,-551 32,-545 32,-545 32,-443 32,-443 32,-437 38,-431 44,-431"/>
<text text-anchor="middle" x="68.5" y="-544.2" font-family="Times New Roman,serif" font-size="11.00" fill="gray">Agents</text>
</g>
<g id="clust7" class="cluster"><title>cluster_\WSC\Framework\Engines</title>
<path fill="none" stroke="gray" d="M387.638,-364C387.638,-364 718.277,-364 718.277,-364 724.277,-364 730.277,-370 730.277,-376 730.277,-376 730.277,-478 730.277,-478 730.277,-484 724.277,-490 718.277,-490 718.277,-490 387.638,-490 387.638,-490 381.638,-490 375.638,-484 375.638,-478 375.638,-478 375.638,-376 375.638,-376 375.638,-370 381.638,-364 387.638,-364"/>
<text text-anchor="middle" x="552.958" y="-477.2" font-family="Times New Roman,serif" font-size="11.00" fill="gray">Engines</text>
</g>
<g id="clust8" class="cluster"><title>cluster_\WSC\Framework\Adapters</title>
<path fill="none" stroke="gray" d="M173,-418C173,-418 219,-418 219,-418 225,-418 231,-424 231,-430 231,-430 231,-478 231,-478 231,-484 225,-490 219,-490 219,-490 173,-490 173,-490 167,-490 161,-484 161,-478 161,-478 161,-430 161,-430 161,-424 167,-418 173,-418"/>
<text text-anchor="middle" x="196" y="-477.2" font-family="Times New Roman,serif" font-size="11.00" fill="gray">Adapters</text>
</g>
<g id="clust9" class="cluster"><title>cluster_\WSC\UnitTests</title>
<path fill="none" stroke="gray" d="M632.277,-114C632.277,-114 735.277,-114 735.277,-114 741.277,-114 747.277,-120 747.277,-126 747.277,-126 747.277,-336 747.277,-336 747.277,-342 741.277,-348 735.277,-348 735.277,-348 632.277,-348 632.277,-348 626.277,-348 620.277,-342 620.277,-336 620.277,-336 620.277,-126 620.277,-126 620.277,-120 626.277,-114 632.277,-114"/>
<text text-anchor="middle" x="683.777" y="-335.2" font-family="Times New Roman,serif" font-size="11.00" fill="gray">UnitTests</text>
</g>
<!-- \\WSC\\Framework\\Controls\\SessionManager -->
<g id="node1" class="node"><title>\\WSC\\Framework\\Controls\\SessionManager</title>
<polygon fill="none" stroke="black" points="739.277,-622 628.277,-622 628.277,-586 739.277,-586 739.277,-622"/>
<text text-anchor="middle" x="683.777" y="-601.2" font-family="Courier,monospace" font-size="11.00">SessionManager</text>
</g>
<!-- \\WSC\\Framework\\Handlers\\File -->
<g id="node2" class="node"><title>\\WSC\\Framework\\Handlers\\File</title>
<polygon fill="none" stroke="black" points="710.777,-542 656.777,-542 656.777,-506 710.777,-506 710.777,-542"/>
<text text-anchor="middle" x="683.777" y="-521.2" font-family="Courier,monospace" font-size="11.00">File</text>
</g>
<!-- \\WSC\\Framework\\Handlers\\Validation -->
<g id="node3" class="node"><title>\\WSC\\Framework\\Handlers\\Validation</title>
<polygon fill="none" stroke="black" points="467.638,-542 383.638,-542 383.638,-506 467.638,-506 467.638,-542"/>
<text text-anchor="middle" x="425.638" y="-521.2" font-family="Courier,monospace" font-size="11.00">Validation</text>
</g>
<!-- \\WSC\\Framework\\Handlers\\File&#45;&gt;\\WSC\\Framework\\Handlers\\Validation -->
<g id="edge1" class="edge"><title>\\WSC\\Framework\\Handlers\\File&#45;&gt;\\WSC\\Framework\\Handlers\\Validation</title>
<path fill="none" stroke="black" d="M656.33,-524C614.423,-524 531.997,-524 478.132,-524"/>
<polygon fill="none" stroke="black" points="478.092,-520.5 468.092,-524 478.092,-527.5 478.092,-520.5"/>
</g>
<!-- \\WSC\\Framework\\Handlers\\Error -->
<g id="node4" class="node"><title>\\WSC\\Framework\\Handlers\\Error</title>
<polygon fill="none" stroke="black" points="223,-542 169,-542 169,-506 223,-506 223,-542"/>
<text text-anchor="middle" x="196" y="-521.2" font-family="Courier,monospace" font-size="11.00">Error</text>
</g>
<!-- \\WSC\\Framework\\Handlers\\Validation&#45;&gt;\\WSC\\Framework\\Handlers\\Error -->
<g id="edge4" class="edge"><title>\\WSC\\Framework\\Handlers\\Validation&#45;&gt;\\WSC\\Framework\\Handlers\\Error</title>
<path fill="none" stroke="black" d="M383.415,-524C340.513,-524 273.993,-524 233.098,-524"/>
<polygon fill="none" stroke="black" points="233.033,-520.5 223.033,-524 233.033,-527.5 233.033,-520.5"/>
</g>
<!-- \\WSC\\Framework\\Agents\\Log -->
<g id="node6" class="node"><title>\\WSC\\Framework\\Agents\\Log</title>
<polygon fill="none" stroke="black" points="95.5,-529 41.5,-529 41.5,-493 95.5,-493 95.5,-529"/>
<text text-anchor="middle" x="68.5" y="-508.2" font-family="Courier,monospace" font-size="11.00">Log</text>
</g>
<!-- \\WSC\\Framework\\Handlers\\Error&#45;&gt;\\WSC\\Framework\\Agents\\Log -->
<g id="edge8" class="edge"><title>\\WSC\\Framework\\Handlers\\Error&#45;&gt;\\WSC\\Framework\\Agents\\Log</title>
<path fill="none" stroke="black" d="M168.996,-521.306C150.777,-519.419 126.176,-516.871 105.995,-514.78"/>
<polygon fill="none" stroke="black" points="106.21,-511.284 95.9021,-513.735 105.488,-518.247 106.21,-511.284"/>
</g>
<!-- \\WSC\\Framework\\Agents\\sqlLog -->
<g id="node5" class="node"><title>\\WSC\\Framework\\Agents\\sqlLog</title>
<polygon fill="none" stroke="black" points="97,-475 40,-475 40,-439 97,-439 97,-475"/>
<text text-anchor="middle" x="68.5" y="-454.2" font-family="Courier,monospace" font-size="11.00">sqlLog</text>
</g>
<!-- \\WSC\\Framework\\Engines\\HTML -->
<g id="node7" class="node"><title>\\WSC\\Framework\\Engines\\HTML</title>
<polygon fill="none" stroke="black" points="467.638,-435 383.638,-435 383.638,-399 467.638,-399 467.638,-435"/>
<text text-anchor="start" x="391.638" y="-420.2" font-family="Courier,monospace" font-size="11.00">«abstract»</text>
<text text-anchor="start" x="411.638" y="-408.2" font-family="Courier,monospace" font-size="11.00">HTML</text>
</g>
<!-- \\WSC\\Framework\\Engines\\Template -->
<g id="node8" class="node"><title>\\WSC\\Framework\\Engines\\Template</title>
<polygon fill="none" stroke="black" points="719.277,-462 648.277,-462 648.277,-426 719.277,-426 719.277,-462"/>
<text text-anchor="middle" x="683.777" y="-441.2" font-family="Courier,monospace" font-size="11.00">Template</text>
</g>
<!-- \\WSC\\Framework\\Engines\\Template&#45;&gt;\\WSC\\Framework\\Engines\\HTML -->
<g id="edge9" class="edge"><title>\\WSC\\Framework\\Engines\\Template&#45;&gt;\\WSC\\Framework\\Engines\\HTML</title>
<path fill="none" stroke="black" d="M648.233,-440.359C604.414,-435.74 528.478,-427.735 477.895,-422.403"/>
<polygon fill="none" stroke="black" points="478.132,-418.909 467.82,-421.341 477.398,-425.87 478.132,-418.909"/>
</g>
<!-- \\WSC\\Framework\\Engines\\Bootstrap -->
<g id="node9" class="node"><title>\\WSC\\Framework\\Engines\\Bootstrap</title>
<polygon fill="none" stroke="black" points="722.277,-408 645.277,-408 645.277,-372 722.277,-372 722.277,-408"/>
<text text-anchor="middle" x="683.777" y="-387.2" font-family="Courier,monospace" font-size="11.00">Bootstrap</text>
</g>
<!-- \\WSC\\Framework\\Engines\\Bootstrap&#45;&gt;\\WSC\\Framework\\Engines\\HTML -->
<g id="edge10" class="edge"><title>\\WSC\\Framework\\Engines\\Bootstrap&#45;&gt;\\WSC\\Framework\\Engines\\HTML</title>
<path fill="none" stroke="black" d="M645.258,-393.955C601.021,-398.618 527.273,-406.392 477.817,-411.605"/>
<polygon fill="none" stroke="black" points="477.229,-408.148 467.651,-412.677 477.963,-415.109 477.229,-408.148"/>
</g>
<!-- \\WSC\\Framework\\Adapters\\DBA -->
<g id="node10" class="node"><title>\\WSC\\Framework\\Adapters\\DBA</title>
<polygon fill="none" stroke="black" points="223,-462 169,-462 169,-426 223,-426 223,-462"/>
<text text-anchor="middle" x="196" y="-441.2" font-family="Courier,monospace" font-size="11.00">DBA</text>
</g>
<!-- \\WSC\\Framework\\Adapters\\DBA&#45;&gt;\\WSC\\Framework\\Agents\\sqlLog -->
<g id="edge7" class="edge"><title>\\WSC\\Framework\\Adapters\\DBA&#45;&gt;\\WSC\\Framework\\Agents\\sqlLog</title>
<path fill="none" stroke="black" d="M168.996,-446.694C151.144,-448.543 127.164,-451.027 107.22,-453.093"/>
<polygon fill="none" stroke="black" points="106.798,-449.618 97.2115,-454.129 107.519,-456.58 106.798,-449.618"/>
</g>
<!-- \\WSC\\UnitTests\\testValidation -->
<g id="node11" class="node"><title>\\WSC\\UnitTests\\testValidation</title>
<polygon fill="none" stroke="black" points="739.277,-320 628.277,-320 628.277,-284 739.277,-284 739.277,-320"/>
<text text-anchor="middle" x="683.777" y="-299.2" font-family="Courier,monospace" font-size="11.00">testValidation</text>
</g>
<!-- \\phpUnit_Framework_TestCase -->
<g id="node15" class="node"><title>\\phpUnit_Framework_TestCase</title>
<ellipse fill="none" stroke="black" cx="425.638" cy="-72" rx="128.077" ry="18"/>
<text text-anchor="middle" x="425.638" y="-68.3" font-family="Times New Roman,serif" font-size="14.00" fill="gray">\phpUnit_Framework_TestCase</text>
</g>
<!-- \\WSC\\UnitTests\\testValidation&#45;&gt;\\phpUnit_Framework_TestCase -->
<g id="edge2" class="edge"><title>\\WSC\\UnitTests\\testValidation&#45;&gt;\\phpUnit_Framework_TestCase</title>
<path fill="none" stroke="black" d="M635.265,-283.914C630.039,-281.219 624.932,-278.243 620.277,-275 546.244,-223.434 477.965,-140.207 445.875,-98.1363"/>
<polygon fill="none" stroke="black" points="448.588,-95.9209 439.767,-90.0509 443.002,-100.14 448.588,-95.9209"/>
</g>
<!-- \\WSC\\UnitTests\\testBootstrap -->
<g id="node12" class="node"><title>\\WSC\\UnitTests\\testBootstrap</title>
<polygon fill="none" stroke="black" points="735.777,-158 631.777,-158 631.777,-122 735.777,-122 735.777,-158"/>
<text text-anchor="middle" x="683.777" y="-137.2" font-family="Courier,monospace" font-size="11.00">testBootstrap</text>
</g>
<!-- \\PHPUnit_Framework_TestCase -->
<g id="node16" class="node"><title>\\PHPUnit_Framework_TestCase</title>
<ellipse fill="none" stroke="black" cx="425.638" cy="-18" rx="130.777" ry="18"/>
<text text-anchor="middle" x="425.638" y="-14.3" font-family="Times New Roman,serif" font-size="14.00" fill="gray">\PHPUnit_Framework_TestCase</text>
</g>
<!-- \\WSC\\UnitTests\\testBootstrap&#45;&gt;\\PHPUnit_Framework_TestCase -->
<g id="edge3" class="edge"><title>\\WSC\\UnitTests\\testBootstrap&#45;&gt;\\PHPUnit_Framework_TestCase</title>
<path fill="none" stroke="black" d="M664.353,-121.936C641.136,-100.239 599.069,-64.3536 556.277,-45 546.494,-40.5756 535.966,-36.8668 525.29,-33.7599"/>
<polygon fill="none" stroke="black" points="526.03,-30.334 515.461,-31.0726 524.184,-37.0861 526.03,-30.334"/>
</g>
<!-- \\WSC\\UnitTests\\testTemplate -->
<g id="node13" class="node"><title>\\WSC\\UnitTests\\testTemplate</title>
<polygon fill="none" stroke="black" points="732.777,-266 634.777,-266 634.777,-230 732.777,-230 732.777,-266"/>
<text text-anchor="middle" x="683.777" y="-245.2" font-family="Courier,monospace" font-size="11.00">testTemplate</text>
</g>
<!-- \\WSC\\UnitTests\\testTemplate&#45;&gt;\\phpUnit_Framework_TestCase -->
<g id="edge5" class="edge"><title>\\WSC\\UnitTests\\testTemplate&#45;&gt;\\phpUnit_Framework_TestCase</title>
<path fill="none" stroke="black" d="M637.39,-229.985C631.519,-227.195 625.676,-224.177 620.277,-221 556.717,-183.604 490.182,-128.283 454.025,-96.6294"/>
<polygon fill="none" stroke="black" points="456.174,-93.8577 446.357,-89.8717 451.545,-99.1093 456.174,-93.8577"/>
</g>
<!-- \\WSC\\UnitTests\\testHTML -->
<g id="node14" class="node"><title>\\WSC\\UnitTests\\testHTML</title>
<polygon fill="none" stroke="black" points="719.277,-212 648.277,-212 648.277,-176 719.277,-176 719.277,-212"/>
<text text-anchor="middle" x="683.777" y="-191.2" font-family="Courier,monospace" font-size="11.00">testHTML</text>
</g>
<!-- \\WSC\\UnitTests\\testHTML&#45;&gt;\\PHPUnit_Framework_TestCase -->
<g id="edge6" class="edge"><title>\\WSC\\UnitTests\\testHTML&#45;&gt;\\PHPUnit_Framework_TestCase</title>
<path fill="none" stroke="black" d="M648.183,-183.925C638.341,-179.84 628.164,-174.314 620.277,-167 575.381,-125.365 605.15,-81.885 556.277,-45 550.284,-40.4775 543.711,-36.6694 536.803,-33.4671"/>
<polygon fill="none" stroke="black" points="537.775,-30.0805 527.198,-29.4656 535.083,-36.5422 537.775,-30.0805"/>
</g>
</g>
</svg>
